# xmcd CD database file generated by LOLA_Freedb v0.9beta0
# 
# Track frame offsets:
#      150
#      21102
#      40071
#      58257
#      78674
#      96919
#      115679
#      134272
#      152518
#      169315
#      186088
#      204750
#      223096
# 
# Disc length: 3116 seconds
# 
# Revision: 23 
# Processed by: cddbd v1.5.2PL0 Copyright (c) Steve Scherf et al.
# Submitted via: LOLA_Freedb v0.9beta0
# 
DISCID=ae0c2a0d
DTITLE=Eros Ramazzotti - 9
DYEAR=2003
DGENRE=Pop
TTITLE0=Eros Ramazzotti - Eros Ramazzotti /Un Attimo di Pace
TTITLE1=Eros Ramazzotti - Solo Ieri
TTITLE2=Eros Ramazzotti - Un Emozione Per Sempre
TTITLE3=Eros Ramazzotti - Ti Vorrei
TTITLE4=Eros Ramazzotti - Il Buio Ha i Tuoi Occhi
TTITLE5=Eros Ramazzotti - Un'ancora nel Vento
TTITLE6=Eros Ramazzotti - Piccola Pietra
TTITLE7=Eros Ramazzotti - Mamará
TTITLE8=Eros Ramazzotti - L'uomo che Guardave le Nuvole
TTITLE9=Eros Ramazzotti - Una Canzone per Lei
TTITLE10=Eros Ramazzotti - Non Ti Prometto Niente
TTITLE11=Eros Ramazzotti - Falsa Partenza
TTITLE12=Eros Ramazzotti - C'è una Melodia
EXTD=YEAR: 2003
EXTT0=
EXTT1=
EXTT2=
EXTT3=
EXTT4=
EXTT5=
EXTT6=
EXTT7=
EXTT8=
EXTT9=
EXTT10=
EXTT11=
EXTT12=
PLAYORDER=
